<?xml version="1.0" encoding="UTF-8"?>
<svg width="25px" height="20px" viewBox="0 0 25 20" version="1.1" xmlns="http://www.w3.org/2000/svg" xmlns:xlink="http://www.w3.org/1999/xlink">
    <!-- Generator: Sketch 63.1 (92452) - https://sketch.com -->
    <title>Icons/Content/Blog</title>
    <desc>Created with Sketch.</desc>
    <defs>
        <path d="M22,18.0952381 C22,19.1451429 21.1459048,20 20.0952381,20 L6,20 L6,19.2380952 L6,5.9047619 L6,4.38095238 C6,4.17066667 6.17142857,4 6.38095238,4 L21.6190476,4 C21.8285714,4 22,4.17066667 22,4.38095238 L22,18.0952381 Z M21.375,2 L6.375,2 C4.9275,2 3.75,3.16296296 3.75,4.59259259 L3.75,6.07407407 L3.75,19.037037 C3.75,19.4451852 3.414,19.7777778 3,19.7777778 C2.586,19.7777778 2.25,19.4451852 2.25,19.037037 L2.25,8.2962963 C2.25,7.68222222 1.746,7.18518519 1.125,7.18518519 C0.504,7.18518519 0,7.68222222 0,8.2962963 L0,19.037037 C0,20.5940741 1.22625,21.8607407 2.77275,21.977037 C2.84925,21.982963 2.922,22 3,22 L19.875,22 C22.149,22 24,20.1725926 24,17.9259259 L24,4.59259259 C24,3.16296296 22.8225,2 21.375,2 L21.375,2 Z M18.9411765,6 L9.05882353,6 C8.47435294,6 8,6.47928571 8,7.07142857 L8,9.92857143 C8,10.5207143 8.47435294,11 9.05882353,11 L18.9411765,11 C19.5256471,11 20,10.5207143 20,9.92857143 L20,7.07142857 C20,6.47928571 19.5256471,6 18.9411765,6 M18.9411765,13 L9.05882353,13 C8.47435294,13 8,13.4473333 8,14 C8,14.5526667 8.47435294,15 9.05882353,15 L18.9411765,15 C19.5256471,15 20,14.5526667 20,14 C20,13.4473333 19.5256471,13 18.9411765,13 M18.9411765,16 L9.05882353,16 C8.47435294,16 8,16.4473333 8,17 C8,17.5526667 8.47435294,18 9.05882353,18 L18.9411765,18 C19.5256471,18 20,17.5526667 20,17 C20,16.4473333 19.5256471,16 18.9411765,16" id="path-1"></path>
    </defs>
    <g id="----Icons" stroke="none" stroke-width="1" fill="none" fill-rule="evenodd">
        <g id="Icons" transform="translate(-502.000000, -2219.000000)">
            <g id="Icons/_Stickersheet" transform="translate(412.500000, 384.000000)">
                <g id="Icons/HubSpotobjects/Blog" transform="translate(90.000000, 1833.000000)">
                    <mask id="mask-2" fill="white">
                        <use xlink:href="#path-1"></use>
                    </mask>
                    <use id="Icons/Content/Blog" fill="#7C98B6" fill-rule="evenodd" xlink:href="#path-1"></use>
                </g>
            </g>
        </g>
    </g>
</svg>