<?xml version="1.0" encoding="UTF-8"?>
<svg width="15px" height="15px" viewBox="0 0 15 15" version="1.1" xmlns="http://www.w3.org/2000/svg" xmlns:xlink="http://www.w3.org/1999/xlink">
    <!-- Generator: Sketch 63.1 (92452) - https://sketch.com -->
    <title>Icons/Utilities/Small/Certification</title>
    <desc>Created with Sketch.</desc>
    <defs>
        <polygon id="path-1" points="0 7.3667 0 0.734 13.6 0.734 13.6 7.3667 13.6 13.9994 0 13.9994"></polygon>
    </defs>
    <g id="Icons/Utilities/Small/Certification" stroke="none" stroke-width="1" fill="none" fill-rule="evenodd">
        <g transform="translate(0.500000, 0.000000)">
            <g id="Group-3" transform="translate(0.000000, 0.265700)">
                <mask id="mask-2" fill="white">
                    <use xlink:href="#path-1"></use>
                </mask>
                <g id="Clip-2"></g>
                <path d="M6.8,12.3004 C4,12.3004 1.8,10.1004 1.8,7.3004 C1.8,4.5004 4,2.3004 6.8,2.3004 C9.6,2.3004 11.8,4.5004 11.8,7.3004 C11.8,10.1004 9.6,12.3004 6.8,12.3004 M13,6.1004 C12.9,5.9004 12.8,5.6994 12.7,5.5004 C12.6,5.3004 12.6,5.0004 12.6,4.8004 C12.6,4.3004 12.5,3.8004 12.3,3.4004 C12,3.0004 11.6,2.8004 11.1,2.6004 C10.9,2.5004 10.7,2.4004 10.5,2.3004 C10.3,2.1994 10.2,2.0004 10.1,1.8004 C9.9,1.4004 9.5,1.0004 9,0.8004 C8.5,0.6994 8,0.6994 7.6,0.9004 C7.1,1.1004 6.7,1.1004 6.2,0.9004 C5.7,0.8004 5.2,0.8004 4.7,0.9004 C4.2,1.1004 3.8,1.5004 3.6,1.9004 C3.5,2.1004 3.3,2.3004 3.2,2.4004 C3,2.5004 2.7,2.6004 2.5,2.6994 C2.1,2.8004 1.6,3.0004 1.3,3.4004 C1,3.8004 0.9,4.3004 1,4.8004 C1,5.0004 1,5.3004 0.9,5.5004 C0.8,5.6994 0.7,5.9004 0.6,6.1004 C0.2,6.4004 0,6.9004 0,7.4004 C0,7.9004 0.2,8.4004 0.6,8.6994 C0.7,8.9004 0.8,9.1004 0.9,9.3004 C1,9.5004 1,9.8004 1,10.0004 C1,10.5004 1.1,10.9994 1.3,11.4004 C1.6,11.8004 2.1,11.9994 2.5,12.1004 C2.7,12.1994 2.9,12.3004 3.1,12.4004 C3.3,12.4994 3.4,12.6994 3.5,12.9004 C3.7,13.3004 4.1,13.6994 4.6,13.9004 C5.1,13.9994 5.6,13.9994 6,13.8004 C6.5,13.6004 6.9,13.6004 7.4,13.8004 C7.7,13.9004 8.1,13.9994 8.4,13.9994 C8.5,13.9994 8.7,13.9994 8.8,13.9004 C9.3,13.6994 9.7,13.3004 9.9,12.9004 C10,12.6994 10.2,12.4994 10.3,12.4004 C10.5,12.3004 10.7,12.1994 10.9,12.1004 C11.4,11.9994 11.8,11.6994 12.1,11.4004 C12.4,10.9994 12.5,10.5004 12.4,10.0004 C12.4,9.8004 12.4,9.5004 12.5,9.3004 C12.8,9.1004 12.9,8.9004 13,8.6994 C13.3,8.3004 13.5,7.8004 13.6,7.4004 C13.6,6.9004 13.4,6.4004 13,6.1004" id="Fill-1" fill="#3F5D75" mask="url(#mask-2)"></path>
            </g>
            <path d="M6.8,3.6657 C9.009,3.6657 10.8,5.4567 10.8,7.6657 C10.8,9.8747 9.009,11.6657 6.8,11.6657 C4.591,11.6657 2.8,9.8747 2.8,7.6657 C2.8,5.4567 4.591,3.6657 6.8,3.6657" id="Fill-4" fill="#3F5D75"></path>
        </g>
    </g>
</svg>