<?xml version="1.0" encoding="UTF-8"?>
<svg width="13px" height="14px" viewBox="0 0 13 14" version="1.1" xmlns="http://www.w3.org/2000/svg" xmlns:xlink="http://www.w3.org/1999/xlink">
    <!-- Generator: Sketch 63.1 (92452) - https://sketch.com -->
    <title>Icon/Content/Small/Contacts</title>
    <desc>Created with Sketch.</desc>
    <g id="Symbols" stroke="none" stroke-width="1" fill="none" fill-rule="evenodd">
        <g id="Icons/Content/Small/Contacts" fill="#3F5D75">
            <g id="Icon/Content/Small/Contacts">
                <path d="M9.264,7.9728 C8.454,9.1238 7.334,9.8378 6.097,9.8378 C4.862,9.8378 3.742,9.1248 2.933,7.9758 C1.952,8.4268 1.082,9.0728 0.382,9.8738 C0.01,10.2998 -0.021,10.9398 0.349,11.3678 C1.743,12.9788 3.807,13.9998 6.102,13.9998 C8.373,13.9998 10.417,13.0008 11.811,11.4188 C12.202,10.9758 12.21,10.3178 11.821,9.8718 C11.12,9.0698 10.247,8.4228 9.264,7.9728" id="Fill-70"></path>
                <path d="M6.0975,0.062 C4.1865,0.062 2.6305,1.617 2.6305,3.529 C2.6305,5.177 3.1335,6.633 3.9055,7.608 C4.5055,8.364 5.2625,8.837 6.0975,8.837 C6.9335,8.837 7.6915,8.363 8.2905,7.606 C9.0615,6.631 9.5645,5.176 9.5645,3.529 C9.5645,1.617 8.0085,0.062 6.0975,0.062" id="Fill-71"></path>
            </g>
        </g>
    </g>
</svg>