<?xml version="1.0" encoding="UTF-8"?>
<svg width="14px" height="14px" viewBox="0 0 14 14" version="1.1" xmlns="http://www.w3.org/2000/svg" xmlns:xlink="http://www.w3.org/1999/xlink">
    <!-- Generator: Sketch 63.1 (92452) - https://sketch.com -->
    <title>Icons/Actions/Small/Filter</title>
    <desc>Created with Sketch.</desc>
    <g id="Icons/Actions/Small/Filter" stroke="none" stroke-width="1" fill="none" fill-rule="evenodd">
        <g id="Icon/Actions/Small/Filter" fill="#3F5D75">
            <path d="M13.0646,11 L6.9996,11 L6.9996,13 L13.0646,13 C13.5816,13 13.9996,12.581 13.9996,12.065 L13.9996,11.935 C13.9996,11.419 13.5816,11 13.0646,11" id="Fill-95"></path>
            <path d="M0,7.0646 C0,7.5816 0.419,7.9996 0.935,7.9996 L8,7.9996 L8,8.9996 L10,8.9996 L10,7.9996 L10,5.9996 L10,4.9996 L8,4.9996 L8,5.9996 L0.935,5.9996 C0.419,5.9996 0,6.4186 0,6.9356 L0,7.0646 Z" id="Fill-96"></path>
            <path d="M13.0646,6 L10.9996,6 L10.9996,8 L13.0646,8 C13.5816,8 13.9996,7.581 13.9996,7.065 L13.9996,6.935 C13.9996,6.419 13.5816,6 13.0646,6" id="Fill-97"></path>
            <path d="M0,2.0646 C0,2.5816 0.419,2.9996 0.935,2.9996 L4,2.9996 L4,3.9996 L6,3.9996 L6,2.9996 L6,0.9996 L6,-0.0004 L4,-0.0004 L4,0.9996 L0.935,0.9996 C0.419,0.9996 0,1.4186 0,1.9356 L0,2.0646 Z" id="Fill-98"></path>
            <path d="M13.0646,1 L6.9996,1 L6.9996,3 L13.0646,3 C13.5816,3 13.9996,2.581 13.9996,2.065 L13.9996,1.935 C13.9996,1.419 13.5816,1 13.0646,1" id="Fill-99"></path>
            <path d="M4,14 L6,14 L6,13 L6,11 L6,10 L4,10 L4,11 L0.935,11 C0.419,11 0,11.419 0,11.935 L0,12.065 C0,12.581 0.419,13 0.935,13 L4,13 L4,14 Z" id="Fill-100"></path>
        </g>
    </g>
</svg>