<?xml version="1.0" encoding="UTF-8"?>
<svg width="65px" height="52px" viewBox="0 0 65 52" version="1.1" xmlns="http://www.w3.org/2000/svg" xmlns:xlink="http://www.w3.org/1999/xlink">
    <!-- Generator: Sketch 64 (93537) - https://sketch.com -->
    <title>Icon/Unlimited</title>
    <desc>Created with Sketch.</desc>
    <g id="Homepage" stroke="none" stroke-width="1" fill="none" fill-rule="evenodd">
        <g id="HealthTech-Homepage" transform="translate(-1119.000000, -3572.000000)" stroke="#00C6AB">
            <g id="Services" transform="translate(72.000000, 3361.000000)">
                <g id="Unlimited" transform="translate(862.000000, 134.000000)">
                    <g id="Icons/Unlimited" transform="translate(186.000000, 78.000000)">
                        <g>
                            <path d="M59,0 C61.209139,-4.05812251e-16 63,1.790861 63,4 L63,19.9545455 C63,22.1636845 61.209139,23.9545455 59,23.9545455 L41.539,23.954 L34.8125,31 L34.812,23.954 L34,23.9545455 C31.790861,23.9545455 30,22.1636845 30,19.9545455 L30,4 C30,1.790861 31.790861,-3.82769592e-17 34,0 L59,0 Z" id="Combined-Shape-Copy-3" stroke-width="2" transform="translate(46.500000, 15.500000) scale(-1, 1) translate(-46.500000, -15.500000) "></path>
                            <path d="M48,30.6645702 L48,35.7881 C48,37.5554112 46.5673112,38.9881 44.8,38.9881 L15.8401007,38.9881 L15.8401007,38.9881 L6.7209384,48 L6.7209384,38.9881 L3.2,38.9881 C1.4326888,38.9881 6.6052241e-16,37.5554112 0,35.7881 L0,10.2 C2.27656009e-16,8.4326888 1.4326888,7 3.2,7 L24.5,7 L24.5,7" id="Path" stroke-width="2" stroke-linecap="round"></path>
                            <line x1="36" y1="18" x2="50.951632" y2="18" id="Path-11-Copy-3" stroke-width="2" stroke-linecap="round"></line>
                            <line x1="36" y1="12" x2="56.951632" y2="12" id="Path-11-Copy-2" stroke-width="2" stroke-linecap="round"></line>
                            <line x1="35.975816" y1="6" x2="56.927448" y2="6" id="Path-11-Copy" stroke-width="2" stroke-linecap="round"></line>
                        </g>
                    </g>
                </g>
            </g>
        </g>
    </g>
</svg>