<?xml version="1.0" encoding="UTF-8"?>
<svg width="52px" height="59px" viewBox="0 0 52 59" version="1.1" xmlns="http://www.w3.org/2000/svg" xmlns:xlink="http://www.w3.org/1999/xlink">
    <!-- Generator: Sketch 64 (93537) - https://sketch.com -->
    <title>Artboard</title>
    <desc>Created with Sketch.</desc>
    <g id="Artboard" stroke="none" stroke-width="1" fill="none" fill-rule="evenodd">
        <g id="write" transform="translate(5.000000, 3.000000)" stroke="#5FB5FF">
            <line x1="0" y1="41.5" x2="27" y2="41.5" id="Path-13" stroke-width="2"></line>
            <g id="Icon/Quote" transform="translate(12.000000, 11.000000)" fill="#5FB5FF" fill-rule="nonzero" stroke-width="1.25">
                <path d="M22.7255021,2.27373675e-13 C26.1120219,2.27373675e-13 28.9046945,2.46645796 29.2987273,5.64860213 L29.3007971,5.64714194 C30.0289178,12.3744492 27.2156631,18.1449784 20.8077465,22.8284719 L20.6124803,22.9700779 L20.1860589,22.4124088 C25.374407,18.6790827 28.1954071,14.3002683 28.6680807,9.25655848 C27.589232,11.3825431 25.3334584,12.845283 22.7255021,12.845283 C19.0689267,12.845283 16.1046865,9.96976847 16.1046865,6.42264151 C16.1046865,2.87551455 19.0689267,2.27373675e-13 22.7255021,2.27373675e-13 Z M22.7255021,0.694339623 C19.4642321,0.694339623 16.8204504,3.25898774 16.8204504,6.42264151 C16.8204504,9.58629528 19.4642321,12.1509434 22.7255021,12.1509434 C25.9867722,12.1509434 28.6305539,9.58629528 28.6305539,6.42264151 C28.6305539,3.25898774 25.9867722,0.694339623 22.7255021,0.694339623 Z" id="Combined-Shape"></path>
                <path d="M6.62081558,2.27373675e-13 C10.0073354,2.27373675e-13 12.800008,2.46645796 13.1940407,5.64860213 L13.1961105,5.64714194 C13.9242312,12.3744492 11.1109765,18.1449784 4.70305999,22.8284719 L4.50779378,22.9700779 L4.08137238,22.4124088 C9.26972045,18.6790827 12.0907205,14.3002683 12.5633942,9.25655848 C11.4845454,11.3825431 9.22877187,12.845283 6.62081558,12.845283 C2.9642401,12.845283 -1.03028697e-13,9.96976847 -1.03028697e-13,6.42264151 C-1.03028697e-13,2.87551455 2.9642401,2.27373675e-13 6.62081558,2.27373675e-13 Z M6.62081558,0.694339623 C3.35954556,0.694339623 0.715763847,3.25898774 0.715763847,6.42264151 C0.715763847,9.58629528 3.35954556,12.1509434 6.62081558,12.1509434 C9.8820856,12.1509434 12.5258673,9.58629528 12.5258673,6.42264151 C12.5258673,3.25898774 9.8820856,0.694339623 6.62081558,0.694339623 Z" id="Combined-Shape-Copy-3"></path>
            </g>
            <path d="M27,7.05810694 L27,3 C27,1.34314575 25.6568542,0 24,0 L3,0 C1.34314575,0 0,1.34314575 0,3 L0,50 C0,51.6568542 1.34314575,53 3,53 L24,53 C25.6568542,53 27,51.6568542 27,50 L27,30.4122332 L27,30.4122332" id="Path-6" stroke-width="2" stroke-linecap="round"></path>
            <circle id="Oval" stroke-width="2" cx="13.5" cy="47.5" r="2.5"></circle>
        </g>
    </g>
</svg>